<svg clip-rule="evenodd" fill-rule="evenodd" stroke-linejoin="round" stroke-miterlimit="2" viewBox="0 0 64 64" xmlns="http://www.w3.org/2000/svg"><g transform="translate(-1688 -8)"><path d="m1739.9 51.382c-.27-.824-1.03-1.382-1.9-1.382s-1.63.558-1.9 1.382l-1.9 5.823s-5.82 1.893-5.82 1.893c-.82.268-1.38 1.036-1.38 1.902s.56 1.634 1.38 1.902l5.82 1.893s1.9 5.823 1.9 5.823c.27.824 1.03 1.382 1.9 1.382s1.63-.558 1.9-1.382l1.9-5.823s5.82-1.893 5.82-1.893c.82-.268 1.38-1.036 1.38-1.902s-.56-1.634-1.38-1.902l-5.82-1.893s-1.9-5.823-1.9-5.823z" fill="#29f5b7"/><path d="m1688 44.999v.001c0 1.461.94 2.759 2.33 3.211 0 0 14.69 4.774 14.69 4.774s4.77 14.683 4.77 14.683c.45 1.39 1.75 2.332 3.21 2.332 1.46 0 2.76-.941 3.21-2.332 0 0 4.78-14.683 4.78-14.683s14.68-4.774 14.68-4.774c1.39-.452 2.33-1.75 2.33-3.211 0-.001 0-.001 0-.001 0-1.462-.94-2.758-2.33-3.21 0 0-14.68-4.774-14.68-4.774s-4.78-14.683-4.78-14.683c-.45-1.391-1.75-2.332-3.21-2.332-1.46 0-2.76.942-3.21 2.332 0 0-4.77 14.683-4.77 14.683s-14.69 4.774-14.69 4.774c-1.39.452-2.33 1.748-2.33 3.21z" fill="#29ddf5"/><path d="m1738.9 9.382c-.27-.824-1.03-1.382-1.9-1.382s-1.63.558-1.9 1.382l-2.88 8.841s-8.84 2.875-8.84 2.875c-.82.268-1.38 1.036-1.38 1.902s.56 1.634 1.38 1.902l8.84 2.875s2.88 8.841 2.88 8.841c.27.824 1.03 1.382 1.9 1.382s1.63-.558 1.9-1.382l2.88-8.841s8.84-2.875 8.84-2.875c.82-.268 1.38-1.036 1.38-1.902s-.56-1.634-1.38-1.902l-8.84-2.875s-2.88-8.841-2.88-8.841z" fill="#a2edf7"/><path d="m1696 21h-2c-1.1 0-2 .896-2 2s.9 2 2 2h2v2c0 1.104.9 2 2 2s2-.896 2-2v-2h2c1.1 0 2-.896 2-2s-.9-2-2-2h-2v-2c0-1.104-.9-2-2-2s-2 .896-2 2z" fill="#29b7f5"/></g></svg>