<?xml version="1.0" encoding="UTF-8" standalone="no"?>
<!-- Created with Inkscape (http://www.inkscape.org/) -->

<svg
   version="1.1"
   id="svg2247"
   xml:space="preserve"
   width="682.66669"
   height="682.66669"
   viewBox="0 0 682.66669 682.66669"
   xmlns="http://www.w3.org/2000/svg"
   xmlns:svg="http://www.w3.org/2000/svg"><defs
     id="defs2251"><clipPath
       clipPathUnits="userSpaceOnUse"
       id="clipPath2281"><path
         d="M 0,512 H 512 V 0 H 0 Z"
         id="path2279" /></clipPath></defs><g
     id="g2253"
     transform="matrix(1.3333333,0,0,-1.3333333,0,682.66667)"><g
       id="g2255"
       transform="translate(66.7734,322.9736)"><path
         d="M 0,0 H 191.983"
         style="fill:none;stroke:#000000;stroke-width:15;stroke-linecap:round;stroke-linejoin:round;stroke-miterlimit:10;stroke-dasharray:none;stroke-opacity:1"
         id="path2257" /></g><g
       id="g2259"
       transform="translate(66.7734,270.2778)"><path
         d="M 0,0 H 191.983"
         style="fill:none;stroke:#000000;stroke-width:15;stroke-linecap:round;stroke-linejoin:round;stroke-miterlimit:10;stroke-dasharray:none;stroke-opacity:1"
         id="path2261" /></g><g
       id="g2263"
       transform="translate(66.7734,217.5825)"><path
         d="M 0,0 H 191.983"
         style="fill:none;stroke:#000000;stroke-width:15;stroke-linecap:round;stroke-linejoin:round;stroke-miterlimit:10;stroke-dasharray:none;stroke-opacity:1"
         id="path2265" /></g><g
       id="g2267"
       transform="translate(66.7734,164.8867)"><path
         d="M 0,0 H 191.983"
         style="fill:none;stroke:#000000;stroke-width:15;stroke-linecap:round;stroke-linejoin:round;stroke-miterlimit:10;stroke-dasharray:none;stroke-opacity:1"
         id="path2269" /></g><g
       id="g2271"
       transform="translate(66.7734,87.6597)"><path
         d="M 0,0 H 96.238"
         style="fill:none;stroke:#000000;stroke-width:15;stroke-linecap:round;stroke-linejoin:round;stroke-miterlimit:10;stroke-dasharray:none;stroke-opacity:1"
         id="path2273" /></g><g
       id="g2275"><g
         id="g2277"
         clip-path="url(#clipPath2281)"><g
           id="g2283"
           transform="translate(187.4014,409.8135)"><path
             d="m 0,0 h -13.002 c -5.143,0 -9.312,4.169 -9.312,9.312 v 24.334 c 0,5.143 4.169,9.312 9.312,9.312 h 153.967 c 5.143,0 9.312,-4.169 9.312,-9.312 V 9.312 C 150.277,4.169 146.108,0 140.965,0 H 35.06 M 213.85,-34.782 V 65.06 c 0,16.351 -13.255,29.606 -29.607,29.606 H -70.194 c -7.852,0 -15.383,-3.12 -20.935,-8.672 L -168.452,8.671 c -5.552,-5.552 -8.671,-13.082 -8.671,-20.934 v -360.465 c 0,-16.351 13.255,-29.606 29.605,-29.606 h 331.761 c 16.352,0 29.607,13.255 29.607,29.606 v 10.099"
             style="fill:none;stroke:#000000;stroke-width:15;stroke-linecap:round;stroke-linejoin:round;stroke-miterlimit:10;stroke-dasharray:none;stroke-opacity:1"
             id="path2285" /></g><g
           id="g2287"
           transform="translate(356.5049,147.0181)"><path
             d="m 0,0 v -75.754 c 0,-6.586 7.222,-10.621 12.831,-7.168 l 27.503,16.931 c 1.353,0.833 2.883,1.249 4.412,1.249 1.53,0 3.061,-0.416 4.413,-1.249 l 27.503,-16.931 c 5.609,-3.453 12.83,0.582 12.83,7.168 V 0"
             style="fill:none;stroke:#000000;stroke-width:15;stroke-linecap:round;stroke-linejoin:round;stroke-miterlimit:10;stroke-dasharray:none;stroke-opacity:1"
             id="path2289" /></g><g
           id="g2291"
           transform="translate(401.251,180.1875)"><path
             d="m 0,0 c -30.571,0 -55.354,24.783 -55.354,55.354 0,30.571 24.783,55.354 55.354,55.354 30.571,0 55.354,-24.783 55.354,-55.354 C 55.354,24.783 30.571,0 0,0 Z m 96.517,42.693 c -5.204,7.639 -5.204,17.683 0,25.322 8.283,12.157 2.855,28.86 -10.992,33.827 -8.7,3.121 -14.604,11.247 -14.883,20.486 -0.445,14.703 -14.655,25.027 -28.775,20.906 -8.873,-2.588 -18.427,0.516 -24.083,7.826 -4.501,5.816 -11.142,8.725 -17.784,8.725 -6.642,0 -13.282,-2.909 -17.783,-8.725 -5.657,-7.31 -15.21,-10.414 -24.083,-7.826 -14.121,4.121 -28.33,-6.203 -28.776,-20.906 -0.279,-9.239 -6.183,-17.365 -14.883,-20.486 -13.846,-4.967 -19.274,-21.67 -10.992,-33.827 5.204,-7.639 5.204,-17.683 0,-25.322 -8.282,-12.156 -2.854,-28.86 10.992,-33.827 8.7,-3.12 14.604,-11.247 14.883,-20.486 v 0 c 0.415,-13.702 12.785,-23.601 25.896,-21.549 0.958,0.149 1.919,0.362 2.88,0.643 8.873,2.589 18.426,-0.515 24.083,-7.825 9.002,-11.634 26.565,-11.634 35.567,0 5.656,7.31 15.21,10.414 24.083,7.825 0.961,-0.281 1.922,-0.494 2.879,-0.643 13.112,-2.052 25.482,7.847 25.896,21.549 v 0 c 0.279,9.239 6.183,17.366 14.883,20.486 13.847,4.967 19.275,21.671 10.992,33.827 z"
             style="fill:none;stroke:#000000;stroke-width:15;stroke-linecap:round;stroke-linejoin:round;stroke-miterlimit:10;stroke-dasharray:none;stroke-opacity:1"
             id="path2293" /></g><g
           id="g2295"
           transform="translate(401.251,290.896)"><path
             d="m 0,0 c -30.571,0 -55.354,-24.783 -55.354,-55.354 0,-30.572 24.783,-55.354 55.354,-55.354 30.571,0 55.354,24.782 55.354,55.354 C 55.354,-24.783 30.571,0 0,0 Z"
             style="fill:none;stroke:#000000;stroke-width:15;stroke-linecap:round;stroke-linejoin:round;stroke-miterlimit:10;stroke-dasharray:none;stroke-opacity:1"
             id="path2297" /></g><g
           id="g2299"
           transform="translate(104.9434,501.8198)"><path
             d="M 0,0 V -73.651 C 0,-83.789 -8.218,-92.006 -18.354,-92.006 H -92.006"
             style="fill:none;stroke:#000000;stroke-width:15;stroke-linecap:round;stroke-linejoin:round;stroke-miterlimit:10;stroke-dasharray:none;stroke-opacity:1"
             id="path2301" /></g></g></g></g></svg>
