<svg id="Layer_1" enable-background="new 0 0 100 100" viewBox="0 0 100 100" xmlns="http://www.w3.org/2000/svg" xmlns:xlink="http://www.w3.org/1999/xlink"><linearGradient id="lg1"><stop offset="0" stop-color="#97e0ff"/><stop offset="1" stop-color="#1075ff"/></linearGradient><linearGradient id="SVGID_1_" gradientUnits="userSpaceOnUse" x1="9.223" x2="108.845" xlink:href="#lg1" y1="-17.637" y2="93.348"/><linearGradient id="SVGID_00000132047377113784047730000007117344056584508061_" gradientUnits="userSpaceOnUse" x1="-12.821" x2="86.8" xlink:href="#lg1" y1="2.151" y2="113.135"/><path d="m26.5809135 51.2597618c1.594492 1.5944901 3.8865719 2.1924286 6.0789948 1.5944901 2.1924286-.5979309 3.8865738-2.2920799 4.4845085-4.4845047.5979309-2.1924286 0-4.4845085-1.5944901-6.0789948l-8.1717682-8.1717682h60.4910049c2.2920837 0 4.3848495-1.1958694 5.4810562-3.1889839 1.0962143-1.9931126 1.0962143-4.3848495 0-6.278307-1.0962067-1.8934574-3.1889725-3.1889839-5.4810562-3.1889839h-60.4910048l8.1717682-8.1717653c1.5944901-1.594491 2.1924248-3.8865728 1.5944901-6.0789971s-2.2920799-3.8865719-4.4845085-4.4845057c-2.1924248-.597934-4.4845047 0-6.0789967 1.5944908l-18.9345794 18.9345796c-1.195868 1.1958694-1.8934579 2.7903595-1.8934579 4.4845066s.6975894 3.2886372 1.8934579 4.4845066z" fill="url(#SVGID_1_)"/><path d="m73.4190826 48.6687164c-1.5944824-1.5944901-3.8865662-2.1924248-6.0789948-1.5944901-2.192421.5979347-3.88657 2.2920799-4.4845047 4.4845047-.5979309 2.1924286 0 4.4845085 1.5944901 6.0789986l8.1717606 8.1717644h-60.4909935c-2.2920809 0-4.3848505 1.1958694-5.4810629 3.1889801s-1.0962124 4.3848495 0 6.2783127c1.0962124 1.8934555 3.188982 3.1889801 5.4810629 3.1889801h60.4909935l-8.1717606 8.1717606c-1.1958694 1.1958694-1.8934593 2.7903595-1.8934593 4.4845047s.6975899 3.2886429 1.8934593 4.4845047c1.1958695 1.1958694 2.7903672 1.8934631 4.4845047 1.8934631 1.6941452 0 3.2886429-.6975861 4.4845047-1.8934631l18.9345856-18.9345779c1.1958618-1.1958618 1.8934555-2.7903595 1.8934555-4.4845047s-.6975861-3.2886429-1.8934555-4.4845047z" fill="url(#SVGID_00000132047377113784047730000007117344056584508061_)"/></svg>