<?xml version="1.0" encoding="UTF-8" standalone="no"?>
<!-- Created with Inkscape (http://www.inkscape.org/) -->

<svg
   version="1.1"
   id="svg5187"
   xml:space="preserve"
   width="682.66669"
   height="682.66669"
   viewBox="0 0 682.66669 682.66669"
   xmlns="http://www.w3.org/2000/svg"
   xmlns:svg="http://www.w3.org/2000/svg"><defs
     id="defs5191"><clipPath
       clipPathUnits="userSpaceOnUse"
       id="clipPath5201"><path
         d="M 0,512 H 512 V 0 H 0 Z"
         id="path5199" /></clipPath></defs><g
     id="g5193"
     transform="matrix(1.3333333,0,0,-1.3333333,0,682.66667)"><g
       id="g5195"><g
         id="g5197"
         clip-path="url(#clipPath5201)"><g
           id="g5203"
           transform="translate(473.1416,14.6738)"><path
             d="m 0,0 -12.855,-6.758 c -2.606,-1.37 -5.652,0.843 -5.154,3.744 l 2.455,14.315 c 0.198,1.152 -0.184,2.328 -1.022,3.144 l -10.4,10.138 c -2.108,2.055 -0.945,5.636 1.969,6.059 l 14.372,2.088 c 1.157,0.168 2.157,0.895 2.675,1.944 l 6.428,13.023 c 1.303,2.64 5.067,2.64 6.37,0 l 6.428,-13.023 c 0.517,-1.049 1.517,-1.776 2.674,-1.944 l 14.373,-2.088 c 2.914,-0.423 4.077,-4.004 1.969,-6.059 l -10.4,-10.138 c -0.838,-0.816 -1.22,-1.992 -1.022,-3.144 l 2.455,-14.315 c 0.497,-2.901 -2.547,-5.114 -5.154,-3.744 L 3.306,0 C 2.271,0.545 1.035,0.545 0,0 Z"
             style="fill:none;stroke:#000000;stroke-width:15;stroke-linecap:round;stroke-linejoin:round;stroke-miterlimit:10;stroke-dasharray:none;stroke-opacity:1"
             id="path5205" /></g><g
           id="g5207"
           transform="translate(35.5527,454.8232)"><path
             d="m 0,0 -12.855,-6.759 c -2.607,-1.37 -5.652,0.843 -5.155,3.745 l 2.455,14.315 c 0.199,1.152 -0.184,2.328 -1.021,3.144 l -10.401,10.137 c -2.107,2.056 -0.944,5.636 1.969,6.06 l 14.373,2.087 c 1.157,0.169 2.157,0.896 2.675,1.944 l 6.428,13.023 c 1.303,2.641 5.067,2.641 6.37,0 l 6.428,-13.023 c 0.517,-1.048 1.517,-1.775 2.674,-1.944 l 14.372,-2.087 c 2.915,-0.424 4.078,-4.004 1.969,-6.06 l -10.4,-10.137 c -0.837,-0.816 -1.219,-1.992 -1.022,-3.144 l 2.455,-14.315 c 0.498,-2.902 -2.547,-5.115 -5.153,-3.745 L 3.306,0 C 2.271,0.544 1.034,0.544 0,0 Z"
             style="fill:none;stroke:#000000;stroke-width:15;stroke-linecap:round;stroke-linejoin:round;stroke-miterlimit:10;stroke-dasharray:none;stroke-opacity:1"
             id="path5209" /></g><g
           id="g5211"
           transform="translate(397.5762,454.8232)"><path
             d="m 0,0 -12.854,-6.759 c -2.607,-1.37 -5.653,0.843 -5.155,3.745 l 2.455,14.315 c 0.198,1.152 -0.184,2.328 -1.021,3.144 l -10.401,10.137 c -2.108,2.056 -0.945,5.636 1.969,6.06 l 14.373,2.087 c 1.156,0.169 2.156,0.896 2.674,1.944 l 6.428,13.023 c 1.303,2.641 5.067,2.641 6.371,0 l 6.428,-13.023 c 0.516,-1.048 1.517,-1.775 2.673,-1.944 l 14.373,-2.087 c 2.914,-0.424 4.078,-4.004 1.969,-6.06 L 19.882,14.445 C 19.045,13.629 18.663,12.453 18.86,11.301 l 2.455,-14.315 c 0.498,-2.902 -2.547,-5.115 -5.154,-3.745 L 3.307,0 C 2.271,0.544 1.035,0.544 0,0 Z"
             style="fill:none;stroke:#000000;stroke-width:15;stroke-linecap:round;stroke-linejoin:round;stroke-miterlimit:10;stroke-dasharray:none;stroke-opacity:1"
             id="path5213" /></g><g
           id="g5215"
           transform="translate(345.3047,316.8271)"><path
             d="m 0,0 -19.984,-10.507 c -4.052,-2.13 -8.787,1.31 -8.013,5.821 l 3.816,22.254 c 0.308,1.791 -0.286,3.619 -1.588,4.888 l -16.168,15.76 c -3.278,3.195 -1.469,8.762 3.061,9.42 l 22.344,3.246 c 1.799,0.262 3.353,1.391 4.158,3.021 l 9.992,20.247 c 2.026,4.105 7.878,4.105 9.904,0 l 9.993,-20.247 c 0.804,-1.63 2.359,-2.759 4.158,-3.021 l 22.344,-3.246 c 4.529,-0.658 6.337,-6.225 3.06,-9.42 L 30.909,22.456 C 29.607,21.187 29.014,19.359 29.32,17.568 l 3.818,-22.254 c 0.773,-4.511 -3.962,-7.951 -8.013,-5.821 L 5.14,0 C 3.531,0.846 1.609,0.846 0,0 Z"
             style="fill:none;stroke:#000000;stroke-width:15;stroke-linecap:round;stroke-linejoin:round;stroke-miterlimit:10;stroke-dasharray:none;stroke-opacity:1"
             id="path5217" /></g><g
           id="g5219"
           transform="translate(243.1416,237.2168)"><path
             d="m 0,0 -12.855,-6.759 c -2.606,-1.369 -5.652,0.843 -5.154,3.745 l 2.455,14.315 c 0.198,1.152 -0.184,2.328 -1.022,3.144 l -10.4,10.137 c -2.108,2.056 -0.945,5.636 1.969,6.06 l 14.372,2.087 c 1.157,0.169 2.157,0.896 2.675,1.944 l 6.428,13.024 c 1.303,2.64 5.067,2.64 6.37,0 l 6.428,-13.024 c 0.517,-1.048 1.517,-1.775 2.674,-1.944 l 14.373,-2.087 c 2.914,-0.424 4.077,-4.004 1.969,-6.06 l -10.4,-10.137 c -0.838,-0.816 -1.22,-1.992 -1.022,-3.144 l 2.455,-14.315 c 0.497,-2.902 -2.547,-5.114 -5.154,-3.745 L 3.306,0 C 2.271,0.544 1.035,0.544 0,0 Z"
             style="fill:none;stroke:#000000;stroke-width:15;stroke-linecap:round;stroke-linejoin:round;stroke-miterlimit:10;stroke-dasharray:none;stroke-opacity:1"
             id="path5221" /></g><g
           id="g5223"
           transform="translate(323,188.1035)"><path
             d="M 0,0 V 0 C -4.143,0 -7.5,3.357 -7.5,7.5 -7.5,11.642 -4.143,15 0,15 4.143,15 7.5,11.642 7.5,7.5 7.5,3.357 4.143,0 0,0"
             style="fill:#000000;fill-opacity:1;fill-rule:nonzero;stroke:none"
             id="path5225" /></g><g
           id="g5227"
           transform="translate(420.9082,304.1904)"><path
             d="M 0,0 V 0 C -4.143,0 -7.5,3.357 -7.5,7.5 -7.5,11.642 -4.143,15 0,15 4.143,15 7.5,11.642 7.5,7.5 7.5,3.357 4.143,0 0,0"
             style="fill:#000000;fill-opacity:1;fill-rule:nonzero;stroke:none"
             id="path5229" /></g><g
           id="g5231"
           transform="translate(216,366.8828)"><path
             d="M 0,0 V 0 C -4.143,0 -7.5,3.358 -7.5,7.5 V 7.501 C -7.5,11.643 -4.143,15 0,15 4.143,15 7.5,11.643 7.5,7.501 V 7.5 C 7.5,3.358 4.143,0 0,0"
             style="fill:#000000;fill-opacity:1;fill-rule:nonzero;stroke:none"
             id="path5233" /></g><g
           id="g5235"
           transform="translate(45.3965,36.7373)"><path
             d="M 0,0 V 0 C -4.143,0 -7.5,3.358 -7.5,7.5 -7.5,11.643 -4.143,15 0,15 4.142,15 7.5,11.643 7.5,7.5 7.5,3.358 4.142,0 0,0"
             style="fill:#000000;fill-opacity:1;fill-rule:nonzero;stroke:none"
             id="path5237" /></g><g
           id="g5239"
           transform="translate(110.3506,457.0986)"><path
             d="m 0,0 c -63.274,-46.033 -104.109,-121.107 -102.821,-204.992 0.723,-47.091 14.546,-91.004 37.983,-128.257"
             style="fill:none;stroke:#000000;stroke-width:15;stroke-linecap:round;stroke-linejoin:round;stroke-miterlimit:10;stroke-dasharray:none;stroke-opacity:1"
             id="path5241" /></g><g
           id="g5243"
           transform="translate(382.7627,138.4365)"><path
             d="m 0,0 c -20.961,-8.006 -43.712,-12.392 -67.487,-12.392 -104.437,-0.002 -189.232,84.793 -189.231,189.23 0.001,84.234 55.044,155.605 131.122,180.125 5.068,1.634 3.92,9.105 -1.404,9.1 -0.689,-10e-4 -1.38,-0.003 -2.071,-0.01 -41.918,-0.381 -81.368,-11.234 -115.895,-30.034"
             style="fill:none;stroke:#000000;stroke-width:15;stroke-linecap:round;stroke-linejoin:round;stroke-miterlimit:10;stroke-dasharray:none;stroke-opacity:1"
             id="path5245" /></g><g
           id="g5247"
           transform="translate(63.5361,98.7939)"><path
             d="m 0,0 c 45.544,-55.691 114.781,-91.252 192.326,-91.294 135.278,-0.073 245.219,106.98 248.561,242.216 0.05,2.021 0.075,4.037 0.077,6.047 0.005,5.324 -7.467,6.471 -9.101,1.404 C 417.741,114.556 388.077,77.716 349.366,54.352"
             style="fill:none;stroke:#000000;stroke-width:15;stroke-linecap:round;stroke-linejoin:round;stroke-miterlimit:10;stroke-dasharray:none;stroke-opacity:1"
             id="path5249" /></g></g></g></g></svg>
