<svg viewBox="0 0 24 24" xmlns="http://www.w3.org/2000/svg"><g id="Layer_2" data-name="Layer 2"><path d="m20.14014 8.75-.77 11.42993a2.7535 2.7535 0 0 1 -2.74026 2.57007h-9.25976a2.7535 2.7535 0 0 1 -2.74024-2.57007l-.77002-11.42993z" fill="#e63946"/><path d="m15.1123 5.75h-6.2246a1.751 1.751 0 0 1 -1.66114-2.30322l.335-1.001a1.74532 1.74532 0 0 1 1.65914-1.19578h5.5586a1.74706 1.74706 0 0 1 1.66015 1.19678l.333.999a1.75021 1.75021 0 0 1 -1.66015 2.30422zm-5.8916-3a.2479.2479 0 0 0 -.23632.17041l-.335 1.001a.2509.2509 0 0 0 .23832.32859h6.2246a.25014.25014 0 0 0 .23731-.32959l-.333-.999a.24965.24965 0 0 0 -.23731-.17141z" fill="#e63946"/><path d="m10 16.75a.7502.7502 0 0 1 -.75-.75v-4a.75.75 0 0 1 1.5 0v4a.7502.7502 0 0 1 -.75.75z" fill="#edebea"/><path d="m14 16.75a.7502.7502 0 0 1 -.75-.75v-4a.75.75 0 0 1 1.5 0v4a.7502.7502 0 0 1 -.75.75z" fill="#edebea"/><path d="m20 4.25h-16a1.75 1.75 0 0 0 0 3.5h16a1.75 1.75 0 0 0 0-3.5z" fill="#e63946"/></g></svg>