<?xml version="1.0" encoding="UTF-8" standalone="no"?>
<!-- Created with Inkscape (http://www.inkscape.org/) -->

<svg
   version="1.1"
   id="svg8430"
   xml:space="preserve"
   width="682.66669"
   height="682.66669"
   viewBox="0 0 682.66669 682.66669"
   xmlns="http://www.w3.org/2000/svg"
   xmlns:svg="http://www.w3.org/2000/svg"><defs
     id="defs8434"><clipPath
       clipPathUnits="userSpaceOnUse"
       id="clipPath8444"><path
         d="M 0,512 H 512 V 0 H 0 Z"
         id="path8442" /></clipPath></defs><g
     id="g8436"
     transform="matrix(1.3333333,0,0,-1.3333333,0,682.66667)"><g
       id="g8438"><g
         id="g8440"
         clip-path="url(#clipPath8444)"><g
           id="g8446"
           transform="translate(35.5527,454.8232)"><path
             d="m 0,0 -12.855,-6.759 c -2.607,-1.37 -5.652,0.843 -5.155,3.745 l 2.455,14.315 c 0.199,1.152 -0.184,2.328 -1.021,3.144 l -10.401,10.137 c -2.107,2.056 -0.944,5.636 1.969,6.06 l 14.373,2.087 c 1.157,0.169 2.157,0.896 2.675,1.944 l 6.428,13.023 c 1.303,2.641 5.067,2.641 6.37,0 l 6.428,-13.023 c 0.517,-1.048 1.517,-1.775 2.674,-1.944 l 7.864,-1.142 2.508,-1.945 c 2.915,-0.424 4.078,-4.004 1.969,-6.06 l -8.4,-8.137 C 17.044,14.629 16.662,13.453 16.859,12.301 L 18.592,-1.173 C 19.09,-4.074 16.044,-6.287 13.438,-4.917 L 10.831,-3.956 3.306,0 C 2.271,0.544 1.034,0.544 0,0"
             style="fill:#ffe282;fill-opacity:1;fill-rule:nonzero;stroke:none"
             id="path8448" /></g><g
           id="g8450"
           transform="translate(473.1416,14.6738)"><path
             d="m 0,0 -12.855,-6.758 c -2.606,-1.37 -5.652,0.843 -5.154,3.744 l 2.455,14.315 c 0.198,1.152 -0.184,2.328 -1.022,3.144 l -10.4,10.138 c -2.108,2.055 -0.945,5.636 1.969,6.059 l 14.372,2.088 c 1.157,0.168 2.157,0.895 2.675,1.944 l 6.428,13.023 c 1.303,2.64 5.067,2.64 6.37,0 l 6.428,-13.023 c 0.517,-1.049 1.517,-1.776 2.674,-1.944 l 7.864,-1.142 2.07,-1.888 c 2.913,-0.424 4.076,-4.004 1.969,-6.059 l -7.961,-8.196 c -0.838,-0.816 -1.22,-1.992 -1.022,-3.144 l 2.731,-13.308 c 0.498,-2.901 -2.548,-5.114 -5.153,-3.744 L 10.831,-3.956 3.306,0 C 2.271,0.545 1.035,0.545 0,0"
             style="fill:#ffe282;fill-opacity:1;fill-rule:nonzero;stroke:none"
             id="path8452" /></g><g
           id="g8454"
           transform="translate(397.5762,454.8232)"><path
             d="m 0,0 -12.854,-6.759 c -2.607,-1.37 -5.653,0.843 -5.155,3.745 l 2.455,14.315 c 0.198,1.152 -0.184,2.328 -1.021,3.144 l -10.401,10.137 c -2.108,2.056 -0.945,5.636 1.969,6.06 l 14.373,2.087 c 1.156,0.169 2.156,0.896 2.674,1.944 l 6.428,13.023 c 1.303,2.641 5.067,2.641 6.371,0 l 6.428,-13.023 c 0.516,-1.048 1.517,-1.775 2.673,-1.944 l 7.864,-1.142 3.509,-0.945 c 2.914,-0.424 4.078,-4.004 1.969,-6.06 l -9.4,-10.137 C 17.045,13.629 16.663,12.453 16.86,11.301 l 2.455,-11.315 c 0.498,-2.902 -2.547,-5.115 -5.154,-3.745 L 10.832,-3.956 3.307,0 C 2.271,0.544 1.035,0.544 0,0"
             style="fill:#ffe282;fill-opacity:1;fill-rule:nonzero;stroke:none"
             id="path8456" /></g><g
           id="g8458"
           transform="translate(243.1416,237.2168)"><path
             d="m 0,0 -12.855,-6.759 c -2.606,-1.369 -5.652,0.843 -5.154,3.745 l 2.455,14.315 c 0.198,1.152 -0.184,2.328 -1.022,3.144 l -10.4,10.137 c -2.108,2.056 -0.945,5.636 1.969,6.06 l 14.372,2.087 c 1.157,0.169 2.157,0.896 2.675,1.944 l 6.428,13.024 c 1.303,2.64 5.067,2.64 6.37,0 l 6.428,-13.024 c 0.517,-1.048 1.517,-1.775 2.674,-1.944 l 7.864,-1.142 3.141,-2.324 c 2.913,-0.424 4.077,-4.004 1.969,-6.06 l -9.032,-8.758 c -0.838,-0.816 -1.22,-1.992 -1.022,-3.144 l 2.455,-11.315 c 0.497,-2.902 -2.547,-5.114 -5.154,-3.745 L 10.831,-3.956 3.306,0 C 2.271,0.544 1.035,0.544 0,0"
             style="fill:#ffe282;fill-opacity:1;fill-rule:nonzero;stroke:none"
             id="path8460" /></g><g
           id="g8462"
           transform="translate(345.3047,316.8271)"><path
             d="m 0,0 -19.984,-10.507 c -4.052,-2.13 -8.787,1.31 -8.013,5.821 l 3.816,22.254 c 0.308,1.791 -0.286,3.619 -1.588,4.888 l -16.168,15.76 c -3.278,3.195 -1.469,8.762 3.061,9.42 l 22.344,3.246 c 1.799,0.262 3.353,1.391 4.158,3.021 l 9.992,20.247 c 2.026,4.105 7.878,4.105 9.904,0 l 9.993,-20.247 c 0.804,-1.63 2.359,-2.759 4.158,-3.021 l 12.223,-1.777 6.914,-2.857 c 4.53,-0.658 6.338,-6.225 3.06,-9.419 L 27.909,23.456 C 26.607,22.187 26.014,20.359 26.32,18.568 L 31.422,-1.903 C 32.196,-6.414 27.461,-9.854 23.41,-7.725 L 16.839,-6.151 5.14,0 C 3.531,0.846 1.609,0.846 0,0"
             style="fill:#ffe282;fill-opacity:1;fill-rule:nonzero;stroke:none"
             id="path8464" /></g><g
           id="g8466"
           transform="translate(315.2754,126.0449)"><path
             d="m 0,0 c -104.437,-0.002 -199.231,74.793 -199.23,179.229 10e-4,84.235 58.422,165.952 134.501,190.472 5.068,1.634 3.22,6.674 -2.104,6.669 -0.689,-10e-4 -6.427,-2.022 -7.118,-2.029 -8.276,-0.075 -4.087,3.546 -12.151,2.674 -125.824,-13.607 -223.627,-121.843 -221.644,-250.953 2.004,-130.438 104.506,-236.497 233.495,-244.164 4.909,-0.291 9.856,0.56 14.838,0.557 133.778,9.873 194.88,90.951 242.333,214.603 0.724,1.887 0.075,4.037 0.077,6.046 0.005,5.325 -7.467,6.473 -9.1,1.405 C 167.884,85.852 165.28,95.072 154.133,79.447 119.825,31.356 63.576,0.001 0,0"
             style="fill:#ffe282;fill-opacity:1;fill-rule:nonzero;stroke:none"
             id="path8468" /></g><g
           id="g8470"
           transform="translate(503.4238,39.2568)"><path
             d="m 0,0 c 2.107,2.055 0.944,5.636 -1.969,6.059 l -6.51,0.946 c 0.825,-1.329 0.77,-3.168 -0.527,-4.432 l -10.4,-10.137 c -0.837,-0.817 -1.219,-1.993 -1.022,-3.145 l 2.455,-14.314 c 0.254,-1.481 -0.417,-2.779 -1.478,-3.516 l 5.33,-2.802 c 2.606,-1.37 5.651,0.843 5.154,3.744 l -2.455,14.315 c -0.198,1.152 0.184,2.328 1.022,3.144 z"
             style="fill:#fdda78;fill-opacity:1;fill-rule:nonzero;stroke:none"
             id="path8472" /></g><g
           id="g8474"
           transform="translate(65.834,479.4053)"><path
             d="m 0,0 c 2.108,2.056 0.945,5.636 -1.969,6.06 l -6.509,0.945 c 0.825,-1.328 0.77,-3.167 -0.527,-4.432 l -10.4,-10.137 c -0.837,-0.816 -1.219,-1.992 -1.022,-3.144 l 2.455,-14.315 c 0.254,-1.48 -0.417,-2.778 -1.478,-3.515 l 5.33,-2.803 c 2.605,-1.37 5.651,0.843 5.153,3.745 l -2.455,14.315 c -0.197,1.152 0.185,2.328 1.023,3.144 z"
             style="fill:#fdda78;fill-opacity:1;fill-rule:nonzero;stroke:none"
             id="path8476" /></g><g
           id="g8478"
           transform="translate(427.8584,479.4053)"><path
             d="m 0,0 c 2.108,2.056 0.944,5.636 -1.969,6.06 l -6.51,0.945 C -7.653,5.677 -7.709,3.838 -9.006,2.573 L -19.405,-7.564 c -0.838,-0.816 -1.22,-1.992 -1.023,-3.144 l 2.456,-14.315 c 0.254,-1.48 -0.417,-2.778 -1.478,-3.515 l 5.329,-2.803 c 2.606,-1.37 5.652,0.843 5.154,3.745 l -2.455,14.315 c -0.197,1.152 0.185,2.328 1.022,3.144 z"
             style="fill:#fdda78;fill-opacity:1;fill-rule:nonzero;stroke:none"
             id="path8480" /></g><g
           id="g8482"
           transform="translate(392.3818,355.043)"><path
             d="M 0,0 C 3.277,3.195 1.469,8.762 -3.061,9.419 L -13.18,10.89 C -11.898,8.824 -11.984,5.965 -14,4 l -16.168,-15.76 c -1.302,-1.268 -1.895,-3.096 -1.589,-4.887 l 3.818,-22.254 c 0.394,-2.302 -0.649,-4.319 -2.299,-5.465 l 8.286,-4.357 c 4.052,-2.13 8.786,1.311 8.013,5.822 l -3.818,22.254 c -0.306,1.791 0.287,3.619 1.589,4.887 z"
             style="fill:#fdda78;fill-opacity:1;fill-rule:nonzero;stroke:none"
             id="path8484" /></g><g
           id="g8486"
           transform="translate(227.167,495.3994)"><path
             d="m 0,0 c -76.078,-24.52 -131.121,-95.89 -131.122,-180.125 -10e-4,-104.437 84.794,-189.231 189.23,-189.229 5.05,0 10.053,0.203 15.003,0.591 -97.437,7.655 -174.234,89.249 -174.233,188.638 C -101.121,-95.89 -46.078,-24.52 30,0 35.067,1.634 33.92,9.105 28.596,9.101 27.906,9.1 27.216,9.097 26.524,9.09 18.249,9.016 10.072,8.522 2.008,7.649 4.064,5.396 3.66,1.181 0,0"
             style="fill:#fdda78;fill-opacity:1;fill-rule:nonzero;stroke:none"
             id="path8488" /></g><g
           id="g8490"
           transform="translate(495.3994,257.167)"><path
             d="m 0,0 c -6.014,-18.657 -14.851,-36.045 -25.998,-51.671 -22.263,-108.809 -115.048,-190.831 -228.376,-197.535 4.91,-0.292 9.854,-0.458 14.837,-0.461 135.277,-0.073 245.219,106.98 248.56,242.216 0.05,2.021 0.076,4.037 0.078,6.047 C 9.105,3.92 1.634,5.068 0,0"
             style="fill:#fdda78;fill-opacity:1;fill-rule:nonzero;stroke:none"
             id="path8492" /></g><g
           id="g8494"
           transform="translate(273.4238,261.7988)"><path
             d="m 0,0 c 2.107,2.056 0.944,5.636 -1.969,6.06 l -6.51,0.945 c 0.825,-1.328 0.77,-3.167 -0.527,-4.432 l -10.4,-10.137 c -0.837,-0.816 -1.219,-1.992 -1.022,-3.144 l 2.455,-14.314 c 0.254,-1.481 -0.417,-2.779 -1.478,-3.516 l 5.33,-2.802 c 2.606,-1.37 5.651,0.843 5.154,3.744 l -2.455,14.315 c -0.198,1.152 0.184,2.328 1.022,3.144 z"
             style="fill:#fdda78;fill-opacity:1;fill-rule:nonzero;stroke:none"
             id="path8496" /></g><g
           id="g8498"
           transform="translate(473.1416,14.6738)"><path
             d="m 0,0 -12.855,-6.758 c -2.606,-1.37 -5.652,0.843 -5.154,3.744 l 2.455,14.315 c 0.198,1.152 -0.184,2.328 -1.022,3.144 l -10.4,10.138 c -2.108,2.055 -0.945,5.636 1.969,6.059 l 14.372,2.088 c 1.157,0.168 2.157,0.895 2.675,1.944 l 6.428,13.023 c 1.303,2.64 5.067,2.64 6.37,0 l 6.428,-13.023 c 0.517,-1.049 1.517,-1.776 2.674,-1.944 l 14.373,-2.088 c 2.914,-0.423 4.077,-4.004 1.969,-6.059 l -10.4,-10.138 c -0.838,-0.816 -1.22,-1.992 -1.022,-3.144 l 2.455,-14.315 c 0.497,-2.901 -2.547,-5.114 -5.154,-3.744 L 3.306,0 C 2.271,0.545 1.035,0.545 0,0 Z"
             style="fill:none;stroke:#000000;stroke-width:15;stroke-linecap:round;stroke-linejoin:round;stroke-miterlimit:10;stroke-dasharray:none;stroke-opacity:1"
             id="path8500" /></g><g
           id="g8502"
           transform="translate(35.5527,454.8232)"><path
             d="m 0,0 -12.855,-6.759 c -2.607,-1.37 -5.652,0.843 -5.155,3.745 l 2.455,14.315 c 0.199,1.152 -0.184,2.328 -1.021,3.144 l -10.401,10.137 c -2.107,2.056 -0.944,5.636 1.969,6.06 l 14.373,2.087 c 1.157,0.169 2.157,0.896 2.675,1.944 l 6.428,13.023 c 1.303,2.641 5.067,2.641 6.37,0 l 6.428,-13.023 c 0.517,-1.048 1.517,-1.775 2.674,-1.944 l 14.372,-2.087 c 2.915,-0.424 4.078,-4.004 1.969,-6.06 l -10.4,-10.137 c -0.837,-0.816 -1.219,-1.992 -1.022,-3.144 l 2.455,-14.315 c 0.498,-2.902 -2.547,-5.115 -5.153,-3.745 L 3.306,0 C 2.271,0.544 1.034,0.544 0,0 Z"
             style="fill:none;stroke:#000000;stroke-width:15;stroke-linecap:round;stroke-linejoin:round;stroke-miterlimit:10;stroke-dasharray:none;stroke-opacity:1"
             id="path8504" /></g><g
           id="g8506"
           transform="translate(397.5762,454.8232)"><path
             d="m 0,0 -12.854,-6.759 c -2.607,-1.37 -5.653,0.843 -5.155,3.745 l 2.455,14.315 c 0.198,1.152 -0.184,2.328 -1.021,3.144 l -10.401,10.137 c -2.108,2.056 -0.945,5.636 1.969,6.06 l 14.373,2.087 c 1.156,0.169 2.156,0.896 2.674,1.944 l 6.428,13.023 c 1.303,2.641 5.067,2.641 6.371,0 l 6.428,-13.023 c 0.516,-1.048 1.517,-1.775 2.673,-1.944 l 14.373,-2.087 c 2.914,-0.424 4.078,-4.004 1.969,-6.06 L 19.882,14.445 C 19.045,13.629 18.663,12.453 18.86,11.301 l 2.455,-14.315 c 0.498,-2.902 -2.547,-5.115 -5.154,-3.745 L 3.307,0 C 2.271,0.544 1.035,0.544 0,0 Z"
             style="fill:none;stroke:#000000;stroke-width:15;stroke-linecap:round;stroke-linejoin:round;stroke-miterlimit:10;stroke-dasharray:none;stroke-opacity:1"
             id="path8508" /></g><g
           id="g8510"
           transform="translate(345.3047,316.8271)"><path
             d="m 0,0 -19.984,-10.507 c -4.052,-2.13 -8.787,1.31 -8.013,5.821 l 3.816,22.254 c 0.308,1.791 -0.286,3.619 -1.588,4.888 l -16.168,15.76 c -3.278,3.195 -1.469,8.762 3.061,9.42 l 22.344,3.246 c 1.799,0.262 3.353,1.391 4.158,3.021 l 9.992,20.247 c 2.026,4.105 7.878,4.105 9.904,0 l 9.993,-20.247 c 0.804,-1.63 2.359,-2.759 4.158,-3.021 l 22.344,-3.246 c 4.529,-0.658 6.337,-6.225 3.06,-9.42 L 30.909,22.456 C 29.607,21.187 29.014,19.359 29.32,17.568 l 3.818,-22.254 c 0.773,-4.511 -3.962,-7.951 -8.013,-5.821 L 5.14,0 C 3.531,0.846 1.609,0.846 0,0 Z"
             style="fill:none;stroke:#000000;stroke-width:15;stroke-linecap:round;stroke-linejoin:round;stroke-miterlimit:10;stroke-dasharray:none;stroke-opacity:1"
             id="path8512" /></g><g
           id="g8514"
           transform="translate(243.1416,237.2168)"><path
             d="m 0,0 -12.855,-6.759 c -2.606,-1.369 -5.652,0.843 -5.154,3.745 l 2.455,14.315 c 0.198,1.152 -0.184,2.328 -1.022,3.144 l -10.4,10.137 c -2.108,2.056 -0.945,5.636 1.969,6.06 l 14.372,2.087 c 1.157,0.169 2.157,0.896 2.675,1.944 l 6.428,13.024 c 1.303,2.64 5.067,2.64 6.37,0 l 6.428,-13.024 c 0.517,-1.048 1.517,-1.775 2.674,-1.944 l 14.373,-2.087 c 2.914,-0.424 4.077,-4.004 1.969,-6.06 l -10.4,-10.137 c -0.838,-0.816 -1.22,-1.992 -1.022,-3.144 l 2.455,-14.315 c 0.497,-2.902 -2.547,-5.114 -5.154,-3.745 L 3.306,0 C 2.271,0.544 1.035,0.544 0,0 Z"
             style="fill:none;stroke:#000000;stroke-width:15;stroke-linecap:round;stroke-linejoin:round;stroke-miterlimit:10;stroke-dasharray:none;stroke-opacity:1"
             id="path8516" /></g><g
           id="g8518"
           transform="translate(323,188.1035)"><path
             d="M 0,0 V 0 C -4.143,0 -7.5,3.357 -7.5,7.5 -7.5,11.642 -4.143,15 0,15 4.143,15 7.5,11.642 7.5,7.5 7.5,3.357 4.143,0 0,0"
             style="fill:#000000;fill-opacity:1;fill-rule:nonzero;stroke:none"
             id="path8520" /></g><g
           id="g8522"
           transform="translate(420.9082,304.1904)"><path
             d="M 0,0 V 0 C -4.143,0 -7.5,3.357 -7.5,7.5 -7.5,11.642 -4.143,15 0,15 4.143,15 7.5,11.642 7.5,7.5 7.5,3.357 4.143,0 0,0"
             style="fill:#000000;fill-opacity:1;fill-rule:nonzero;stroke:none"
             id="path8524" /></g><g
           id="g8526"
           transform="translate(216,366.8828)"><path
             d="M 0,0 V 0 C -4.143,0 -7.5,3.358 -7.5,7.5 V 7.501 C -7.5,11.643 -4.143,15 0,15 4.143,15 7.5,11.643 7.5,7.501 V 7.5 C 7.5,3.358 4.143,0 0,0"
             style="fill:#000000;fill-opacity:1;fill-rule:nonzero;stroke:none"
             id="path8528" /></g><g
           id="g8530"
           transform="translate(45.3965,36.7373)"><path
             d="M 0,0 V 0 C -4.143,0 -7.5,3.358 -7.5,7.5 -7.5,11.643 -4.143,15 0,15 4.142,15 7.5,11.643 7.5,7.5 7.5,3.358 4.142,0 0,0"
             style="fill:#000000;fill-opacity:1;fill-rule:nonzero;stroke:none"
             id="path8532" /></g><g
           id="g8534"
           transform="translate(110.3506,457.0986)"><path
             d="m 0,0 c -63.274,-46.033 -104.109,-121.107 -102.821,-204.992 0.723,-47.091 14.546,-91.004 37.983,-128.257"
             style="fill:none;stroke:#000000;stroke-width:15;stroke-linecap:round;stroke-linejoin:round;stroke-miterlimit:10;stroke-dasharray:none;stroke-opacity:1"
             id="path8536" /></g><g
           id="g8538"
           transform="translate(382.7627,138.4365)"><path
             d="m 0,0 c -20.961,-8.006 -43.712,-12.392 -67.487,-12.392 -104.437,-0.002 -189.232,84.793 -189.231,189.23 0.001,84.234 55.044,155.605 131.122,180.125 5.068,1.634 3.92,9.105 -1.404,9.1 -0.689,-10e-4 -1.38,-0.003 -2.071,-0.01 -41.918,-0.381 -81.368,-11.234 -115.895,-30.034"
             style="fill:none;stroke:#000000;stroke-width:15;stroke-linecap:round;stroke-linejoin:round;stroke-miterlimit:10;stroke-dasharray:none;stroke-opacity:1"
             id="path8540" /></g><g
           id="g8542"
           transform="translate(63.5361,98.7939)"><path
             d="m 0,0 c 45.544,-55.691 114.781,-91.252 192.326,-91.294 135.278,-0.073 245.219,106.98 248.561,242.216 0.05,2.021 0.075,4.037 0.077,6.047 0.005,5.324 -7.467,6.471 -9.101,1.404 C 417.741,114.556 388.077,77.716 349.366,54.352"
             style="fill:none;stroke:#000000;stroke-width:15;stroke-linecap:round;stroke-linejoin:round;stroke-miterlimit:10;stroke-dasharray:none;stroke-opacity:1"
             id="path8544" /></g></g></g></g></svg>
