<svg clip-rule="evenodd" fill-rule="evenodd" height="512" image-rendering="optimizeQuality" shape-rendering="geometricPrecision" text-rendering="geometricPrecision" viewBox="0 0 512 512" width="512" xmlns="http://www.w3.org/2000/svg" xmlns:xlink="http://www.w3.org/1999/xlink" xmlns:xodm="http://www.corel.com/coreldraw/odm/2003"><linearGradient id="id0" gradientUnits="userSpaceOnUse" x1="256" x2="256" y1="512" y2="0"><stop offset="0" stop-color="#1aa8dc"/><stop offset=".490196" stop-color="#ae3b89"/><stop offset="1" stop-color="#f26270"/></linearGradient><g id="Layer_x0020_1"><path d="m126.39 362.73c-5.31 0-10.61-1.3-15.22-4.01-7.11-4-12.11-10.41-14.01-18.02l-67.98-255.99c-2.5-7.61-1.5-15.62 2.7-22.63 3.91-6.5 10.21-11.51 17.82-14.01.1 0 .3-.1.4-.1l177.21-47.06h.1c15.52-3.9 31.13 5.01 36.34 20.63 0 .1.1.3.1.4l68.08 256.29v.1c3.9 15.52-5.01 31.14-20.63 36.34-.1 0-.3.1-.4.1l-177.2 47.06h-.1c-2.3.6-4.71.9-7.21.9zm140.76 149.27c-7.51 0-15.12-2.9-20.92-8.81l-120.12-119.19 171.91 46.87c1.56.66 2.96.91 3.97.99 3.06.61 6.19.93 9.31.93 19.98 0 36.94-12.86 42.15-32.18l52.96-196.4 68.98 69.82c11.71 11.71 11.71 30.13 0 41.95l-187.21 187.21c-5.91 5.81-13.52 8.81-21.03 8.81zm44.15-93.21c-2.5 0-5.1-.3-7.71-.9-.1 0-.2 0-.3-.1l-160.75-43.82 170.57-45.3h.47l2.15-.71c21.55-7.19 34.8-28.98 30.2-51.2v-.36l-52.61-198.03 94.67 25.76c15.42 3.91 25.03 20.63 21.02 36.54v.1l-69.08 256.2c-3.3 13.31-15.01 21.82-28.63 21.82z" fill="url(#id0)"/></g></svg>