<svg clip-rule="evenodd" fill-rule="evenodd" height="512" image-rendering="optimizeQuality" shape-rendering="geometricPrecision" text-rendering="geometricPrecision" viewBox="0 0 512 512" width="512" xmlns="http://www.w3.org/2000/svg"><g id="Layer_x0020_1"><path d="m126.39 362.729c-5.30553 0-10.6122-1.30158-15.2174-4.00513-7.1079-4.00513-12.1146-10.4114-14.015-18.0201l-67.9786-255.993c-2.50394-7.60987-1.50237-15.6189 2.70237-22.6264 3.90474-6.50789 10.2118-11.5146 17.8217-14.0162.100394 0 .300001-.100394.400395-.100394l177.204-47.0541h.100394c15.5174-3.90356 31.1351 5.00553 36.3415 20.6233 0 .100394.100394.301182.100394.401576l68.0778 256.293v.100394c3.90474 15.5174-5.00553 31.1351-20.6233 36.3415-.100394 0-.300001.100394-.400395.100394l-177.204 47.0541h-.100394c-2.30316.601183-4.70671.901184-7.20947.901184z" fill="#60c3d8"/><path d="" fill="#60c3d8"/><g fill="#c7c7c6"><path d="m311.302 418.793c-2.50276 0-5.10592-.300001-7.7079-.901184-.100394 0-.200788 0-.301182-.100394l-160.756-43.8249 170.572-45.2931h.467718l2.15552-.718112c21.5505-7.18467 34.7942-28.9737 30.195-51.1927v-.357875l-52.6041-198.038 94.6656 25.7658c15.4182 3.90474 25.03 20.6233 21.0249 36.5422v.100394l-69.0793 256.193c-3.30237 13.317-15.0166 21.8257-28.6324 21.8257z"/><path d="m267.151 512.001c-7.50829 0-15.117-2.90316-20.9233-8.81105l-120.114-119.191 171.91 46.8663c1.55788.663782 2.95276.911814 3.96143.998035 3.06497.60827 6.19254.92953 9.31656.92953 19.9772 0 36.9403-12.8611 42.1489-32.1804l52.9572-196.398 68.9813 69.814c11.713 11.713 11.713 30.1347 0 41.9482l-187.214 187.214c-5.90671 5.8075-13.5154 8.81105-21.0249 8.81105z"/></g></g></svg>