<svg id="Layer_1" enable-background="new 0 0 64 64" viewBox="0 0 64 64" xmlns="http://www.w3.org/2000/svg"><g><path d="m63.77 54.19c-.36-.8-1.04-1.28-1.84-1.28h-1.13v-29.53c0-2.13-1.73-3.87-3.86-3.87h-7.96v-9.88c0-.13-.03-.26-.08-.37-.05-.12-.12-.22-.21-.31l-5.15-5.15c-.09-.09-.2-.16-.31-.21-.12-.05-.24-.08-.37-.08h-25.93c-1.05 0-1.91.86-1.91 1.91v14.11h-7.95c-2.13 0-3.87 1.74-3.87 3.87v29.53h-1.14c-.78 0-1.47.47-1.82 1.27-.43.95-.27 2.08.38 2.82l2.05 2.3c.68.76 1.6 1.19 2.52 1.19h53.6c.92 0 1.81-.42 2.53-1.2l2.05-2.31c.66-.73.82-1.86.4-2.81zm-6.83-32.73c1.06 0 1.92.87 1.92 1.93v1.63h-9.88v-3.56zm-13.12-14.65 1.86 1.86-1.86.01zm-1.94-1.37v3.25c0 1.05.86 1.91 1.91 1.91h3.25v30.62l-30.07.03-.01-15.2c0-.02.01-.04.01-.07 0-.02-.01-.05-.01-.07v-5.34c0-.03.02-.06.02-.09s-.02-.06-.02-.09l-.03-14.95zm-34.81 16.02h7.96v3.56h-9.89v-1.63c0-1.07.86-1.93 1.93-1.93zm-1.93 5.49h9.89v14.3c0 1.05.86 1.91 1.91 1.91h30.13c1.05 0 1.91-.86 1.91-1.91v-14.3h9.88v25.96h-19.27c-.28 0-.55.12-.74.34l-1.33 1.56h-11.05l-1.32-1.56c-.18-.22-.45-.34-.74-.34h-19.27zm56.79 28.76c-.01 0-.01 0 0 0l-2.03 2.29c-.33.36-.72.56-1.09.56h-53.61c-.37 0-.77-.2-1.08-.55l-2.05-2.29c-.1-.12-.15-.32-.12-.53s.12-.32.11-.33h21.9l1.32 1.56c.18.22.46.34.74.34h11.95c.28 0 .55-.12.74-.34l1.33-1.56 19.77-.01h.02.02 2.06c.03.02.12.13.15.33.01.16-.01.39-.13.53z"/><path d="m21.04 12.24h17.22c.54 0 .97-.43.97-.97s-.43-.97-.97-.97h-17.22c-.54 0-.97.43-.97.97s.44.97.97.97z"/><path d="m21.04 17.84h21.9c.54 0 .97-.43.97-.97s-.43-.97-.97-.97h-21.9c-.54 0-.97.43-.97.97 0 .53.44.97.97.97z"/><path d="m21.04 23.43h18.09c.54 0 .97-.43.97-.97s-.43-.97-.97-.97h-18.09c-.54 0-.97.43-.97.97s.44.97.97.97z"/><path d="m21.04 34.62h19.09c.54 0 .97-.43.97-.97s-.43-.97-.97-.97h-19.09c-.54 0-.97.43-.97.97s.44.97.97.97z"/><path d="m21.04 29.03h13.54c.54 0 .97-.43.97-.97s-.43-.97-.97-.97h-13.54c-.54 0-.97.43-.97.97 0 .53.44.97.97.97z"/></g></svg>