<?xml version="1.0" encoding="iso-8859-1"?>
<!-- Generator: Adobe Illustrator 19.0.0, SVG Export Plug-In . SVG Version: 6.00 Build 0)  -->
<svg version="1.1" id="Layer_1" xmlns="http://www.w3.org/2000/svg" xmlns:xlink="http://www.w3.org/1999/xlink" x="0px" y="0px"
	 viewBox="0 0 358.804 358.804" style="enable-background:new 0 0 358.804 358.804;" xml:space="preserve">
<g>
	<g>
		<path d="M176.753,116.521c-34.191,0-62.008,27.817-62.008,62.008c0,34.191,27.822,62.003,62.008,62.003
			s62.008-27.817,62.008-62.008C238.761,144.333,210.944,116.521,176.753,116.521z M176.753,228.46
			c-27.535,0-49.935-22.4-49.935-49.935c0-27.535,22.4-49.935,49.935-49.935c27.535,0,49.935,22.4,49.935,49.935
			C226.688,206.06,204.288,228.46,176.753,228.46z"/>
		<path d="M346.993,34.97v11.274h-34.417V34.97h-13.102v25.38c0,9.999-8.105,18.109-18.109,18.109H77.445
			c-9.999,0-18.11-8.11-18.11-18.109V34.97H46.991v11.274H12.57V34.97H0v288.865h12.57v-2.954h34.422v2.954h12.344v-25.38
			c0-9.999,8.105-18.109,18.11-18.109h203.914c9.999,0,18.109,8.105,18.109,18.109v25.38h13.102v-2.954h34.422v2.954h11.812V34.97
			H346.993z M46.991,310.41H12.57v-22.549h34.422V310.41z M46.991,277.386H12.57v-22.549h34.422V277.386z M46.991,244.367H12.57
			v-22.548h34.422V244.367z M46.991,211.348H12.57V188.8h34.422V211.348z M46.991,178.324H12.57v-22.548h34.422V178.324z
			 M46.991,145.306H12.57v-22.548h34.422V145.306z M46.991,112.287H12.57V89.738h34.422V112.287z M46.991,79.263H12.57V56.714
			h34.422V79.263z M281.364,261.217H77.445c-9.999,0-18.11-8.105-18.11-18.109V115.691c0-9.999,8.105-18.109,18.11-18.109h203.914
			c9.999,0,18.109,8.11,18.109,18.109v127.416h0.005C299.474,253.107,291.369,261.217,281.364,261.217z M346.998,310.41h-0.005
			h-34.417v-22.549h34.422V310.41z M346.998,277.386h-0.005h-34.417v-22.549h34.422V277.386z M346.998,244.367h-0.005h-34.417
			v-22.548h34.422V244.367z M346.998,211.348h-0.005h-34.417V188.8h34.422V211.348z M346.998,178.324h-0.005h-34.417v-22.548h34.422
			V178.324z M346.998,145.306h-0.005h-34.417v-22.548h34.422V145.306z M346.998,112.287h-0.005h-34.417V89.738h34.422V112.287z
			 M346.998,79.263h-0.005h-34.417V56.714h34.422V79.263z"/>
		<path d="M157.614,166.81l5.268,6.579l5.944-4.777c0.707-0.568,1.971-1.756,3.784-3.574l-0.179,5.376l-0.108,4.915v29.921h10.931
			v-51.707h-8.986L157.614,166.81z"/>
	</g>
</g>
<g>
</g>
<g>
</g>
<g>
</g>
<g>
</g>
<g>
</g>
<g>
</g>
<g>
</g>
<g>
</g>
<g>
</g>
<g>
</g>
<g>
</g>
<g>
</g>
<g>
</g>
<g>
</g>
<g>
</g>
</svg>
