<svg id="Layer_1" viewBox="0 0 512 512" xmlns="http://www.w3.org/2000/svg" data-name="Layer 1"><path d="m491 63.54h-470a21.023 21.023 0 0 0 -21 21v299.131a21.024 21.024 0 0 0 21 21h204.277c-2.821 12.492-6.666 23.146-11.472 31.789h-37.373a6 6 0 1 0 0 12h159.137a6 6 0 0 0 0-12h-37.369c-4.806-8.642-8.651-19.3-11.472-31.789h204.272a21.024 21.024 0 0 0 21-21v-299.131a21.023 21.023 0 0 0 -21-21zm-206.282 372.92h-57.436a144.771 144.771 0 0 0 10.275-31.789h36.886a144.824 144.824 0 0 0 10.275 31.789zm215.282-52.789a9.01 9.01 0 0 1 -9 9h-470a9.01 9.01 0 0 1 -9-9v-299.131a9.01 9.01 0 0 1 9-9h470a9.01 9.01 0 0 1 9 9zm-132.549-261.017a157.616 157.616 0 0 1 0 222.9 6 6 0 1 1 -8.486-8.485 145.614 145.614 0 0 0 0-205.932 6 6 0 0 1 8.485-8.486zm.739 111.451a111.456 111.456 0 0 1 -32.86 79.331 6 6 0 0 1 -8.485-8.485 100.19 100.19 0 0 0 0-141.69 6 6 0 1 1 8.485-8.486 111.457 111.457 0 0 1 32.86 79.33zm-215.156 102.967a6 6 0 0 1 -8.486 8.485 157.618 157.618 0 0 1 0-222.9 6 6 0 0 1 8.486 8.486 145.616 145.616 0 0 0 0 205.932zm32.121-173.811a100.19 100.19 0 0 0 0 141.69 6 6 0 0 1 -8.486 8.485 112.192 112.192 0 0 1 0-158.661 6 6 0 0 1 8.486 8.486zm126.671 25.751h-111.652a9.574 9.574 0 0 0 -9.564 9.563v71.061a9.574 9.574 0 0 0 9.564 9.563h111.652a9.574 9.574 0 0 0 9.563-9.563v-71.061a9.574 9.574 0 0 0 -9.563-9.563zm-2.437 78.188h-106.779v-66.188h106.779zm-73.089-8.615a6 6 0 0 0 6 0l33.4-19.285a6 6 0 0 0 0-10.393l-33.4-19.283a6 6 0 0 0 -9 5.2v38.566a6 6 0 0 0 3 5.195zm9-33.37 15.4 8.89-15.4 8.895z"/></svg>