<svg id="streaming" viewBox="0 0 32 32" xmlns="http://www.w3.org/2000/svg"><path d="m26.47021 28.2998h-2.69189a1.35674 1.35674 0 0 1 -1.34961-1.3608v-7.50248a1.37632 1.37632 0 0 1 1.52246-1.36035v-2.6665a7.8845 7.8845 0 0 0 -1.82129-5.04346 2.17739 2.17739 0 0 1 -1.271-.5249 7.36209 7.36209 0 0 0 -9.71488-.00244 2.19563 2.19563 0 0 1 -1.26709.519 7.885 7.885 0 0 0 -1.82812 5.05176v2.6665a1.37635 1.37635 0 0 1 1.52245 1.36037v7.50242a1.35674 1.35674 0 0 1 -1.34956 1.36088h-2.69189a2.21353 2.21353 0 0 1 -2.16065-1.7456 2.86593 2.86593 0 0 1 -2.41064-2.82568v-1.09229a2.87274 2.87274 0 0 1 2.41015-2.81445 2.18966 2.18966 0 0 1 1.47364-1.62744v-2.78467a11.072 11.072 0 0 1 2.73242-7.30274 2.11921 2.11921 0 0 1 .72314-1.51074 11.69074 11.69074 0 0 1 15.40186-.00244 2.12138 2.12138 0 0 1 .72412 1.51172 11.0721 11.0721 0 0 1 2.73388 7.3042v2.78467a2.18977 2.18977 0 0 1 1.47364 1.627 2.85855 2.85855 0 0 1 2.41015 2.81494v1.09229a2.89022 2.89022 0 0 1 -2.41064 2.82568 2.21312 2.21312 0 0 1 -2.16065 1.74555zm-2.07521-9.22656c-.3006.0273-.9739-.133-.96629.36329v7.50243a.35184.35184 0 0 0 .34961.36084h2.69189a1.21156 1.21156 0 0 0 1.21-1.21v-5.80367a1.24948 1.24948 0 0 0 -1.20557-1.22265l-.00195-.001-2.02149.01367a.53181.53181 0 0 1 -.0562-.00291zm-19.08691.03418a1.19259 1.19259 0 0 0 -.98829 1.17871v5.80371a1.21156 1.21156 0 0 0 1.21 1.21h2.69188a.35184.35184 0 0 0 .34961-.36084v-7.50248a.35143.35143 0 0 0 -.34961-.36035c-.06338-.0087-2.9612-.00524-2.91357.03125zm-2.80321 2.21875c-.66277.57095-.5469 1.62489-.54634 2.40237a1.86451 1.86451 0 0 0 1.36128 1.79294v-4.667a1.907 1.907 0 0 0 -.81494.47169zm26.1753-.47217v4.667a1.88652 1.88652 0 0 0 1.36131-1.79249v-1.09228a1.85531 1.85531 0 0 0 -1.36131-1.78223zm-3.729-2.77783h1.20654v-2.6665a10.08331 10.08331 0 0 0 -2.03125-6.08594 2.13612 2.13612 0 0 1 -.896.82813c1.78737 2.24333 1.80432 5.1896 1.7207 7.92431zm-19.10888 0h1.20653c-.08353-2.73677-.06658-5.679 1.71972-7.92383a2.12819 2.12819 0 0 1 -.89453-.8291 10.08207 10.08207 0 0 0 -2.03173 6.08643zm10.1577-11.06592a8.3599 8.3599 0 0 1 5.51514 2.07666 1.15253 1.15253 0 0 0 .73779.2837 1.16548 1.16548 0 0 0 .78559-2.0264 10.74634 10.74634 0 0 0 -14.079.00159 1.12059 1.12059 0 0 0 -.38282.912 1.15849 1.15849 0 0 0 1.916.82222 8.35323 8.35323 0 0 1 5.5073-2.06977zm0 20.07275a.49971.49971 0 0 1 -.5-.5v-6.793a.5.5 0 0 1 1 0v6.793a.49971.49971 0 0 1 -.5.5zm2.2207-1.25293a.49972.49972 0 0 1 -.5-.5v-4.28707a.5.5 0 0 1 1 0v4.28711a.49971.49971 0 0 1 -.5.49997zm-4.4414 0a.49971.49971 0 0 1 -.5-.5v-4.28707a.5.5 0 0 1 1 0v4.28711a.49972.49972 0 0 1 -.5.49997zm6.66211-1.49507a.49971.49971 0 0 1 -.5-.5v-1.29691a.5.5 0 0 1 1 0v1.29691a.49972.49972 0 0 1 -.5.5zm-8.88282 0a.49972.49972 0 0 1 -.5-.5v-1.29691a.5.5 0 0 1 1 0v1.29691a.49971.49971 0 0 1 -.5.5z"/></svg>