<?xml version="1.0" encoding="iso-8859-1"?>
<!-- Generator: Adobe Illustrator 19.0.0, SVG Export Plug-In . SVG Version: 6.00 Build 0)  -->
<svg version="1.1" id="Capa_1" xmlns="http://www.w3.org/2000/svg" xmlns:xlink="http://www.w3.org/1999/xlink" x="0px" y="0px"
	 viewBox="0 0 512 512" style="enable-background:new 0 0 512 512;" xml:space="preserve">
<path style="fill:#C5C9F7;" d="M396.31,140.31v72.33h-67.37v-69.7c0-20.14-8.16-38.38-21.36-51.58C294.38,78.16,276.14,70,256,70
	c-40.29,0-72.94,32.66-72.94,72.94v69.7h-67.37v-72.33C115.69,62.94,178.63,0,256,0S396.31,62.94,396.31,140.31z"/>
<path style="fill:#97A1F0;" d="M396.31,140.31v72.33h-67.37v-69.7c0-20.14-8.16-38.38-21.36-51.58C294.38,78.16,276.14,70,256,70V0
	C333.37,0,396.31,62.94,396.31,140.31z"/>
<rect x="66.37" y="197.64" style="fill:#00A5FF;" width="379.26" height="314.36"/>
<rect x="256" y="197.64" style="fill:#0087FF;" width="189.63" height="314.36"/>
<path style="fill:#00459D;" d="M296.57,334.38c0,10.64-4.1,20.32-10.8,27.56v55.89h-59.54v-55.89c-6.7-7.24-10.8-16.92-10.8-27.56
	c0-22.41,18.16-40.57,40.57-40.57S296.57,311.97,296.57,334.38z"/>
<path style="fill:#002D6B;" d="M296.57,334.38c0,10.64-4.1,20.32-10.8,27.56v55.89H256V293.81
	C278.41,293.81,296.57,311.97,296.57,334.38z"/>
<g>
</g>
<g>
</g>
<g>
</g>
<g>
</g>
<g>
</g>
<g>
</g>
<g>
</g>
<g>
</g>
<g>
</g>
<g>
</g>
<g>
</g>
<g>
</g>
<g>
</g>
<g>
</g>
<g>
</g>
</svg>
