<svg id="Layer_1" viewBox="0 0 1000 1000" xmlns="http://www.w3.org/2000/svg" data-name="Layer 1"><path d="m623.7 881.68a105.33 105.33 0 0 1 -16.28-1.27 103.21 103.21 0 0 1 -67.88-41.41 86.31 86.31 0 0 1 18.86-120.6 72.35 72.35 0 0 1 101 15.79 61.08 61.08 0 0 1 -13.4 85.23 52 52 0 0 1 -72.65-11.37 16 16 0 0 1 25.85-18.86 20 20 0 0 0 27.95 4.37 29 29 0 0 0 6.35-40.56 40.3 40.3 0 0 0 -56.24-8.8 54.33 54.33 0 0 0 -11.87 75.9 71.89 71.89 0 0 0 100.45 15.71 93.52 93.52 0 0 0 38.37-82c-.52-8-.75-16.47-.75-27.58v-452.59c0-10.4-.21-18.27-.68-25.51a125.37 125.37 0 0 1 51.47-109.83 103.88 103.88 0 0 1 145.16 22.7 86.41 86.41 0 0 1 -18.86 120.6 72.34 72.34 0 0 1 -101-15.79 61.07 61.07 0 0 1 13.34-85.23 52 52 0 0 1 72.7 11.42 16 16 0 0 1 -25.86 18.85 20 20 0 0 0 -27.94-4.37 29 29 0 0 0 -6.34 40.52 40.3 40.3 0 0 0 56.24 8.79 54.37 54.37 0 0 0 11.87-75.89 71.89 71.89 0 0 0 -100.45-15.71 93.51 93.51 0 0 0 -38.36 82c.65 10.2.74 20.09.74 27.57v452.6c0 10.39.21 18.26.68 25.51a125.37 125.37 0 0 1 -51.47 109.83 103.12 103.12 0 0 1 -61 19.98z"/><path d="m623.55 881.67h-451a88.58 88.58 0 0 1 0-177.16h428.39a16 16 0 0 1 0 32h-428.36a56.58 56.58 0 1 0 0 113.16h451a16 16 0 0 1 0 32z"/><path d="m198.93 222.91a16 16 0 0 1 -16-16 88.68 88.68 0 0 1 88.58-88.58h543.89a16 16 0 0 1 0 32h-543.89a56.64 56.64 0 0 0 -56.58 56.58 16 16 0 0 1 -16 16z"/><path d="m198.93 736.51a16 16 0 0 1 -16-16v-513.6a16 16 0 0 1 32 0v513.6a16 16 0 0 1 -16 16z"/><path d="m569.08 257.65c-22.26 0-34.35-6.35-44.07-11.46-8.28-4.35-14.82-7.79-29.18-7.79s-20.9 3.44-29.18 7.79c-9.72 5.11-21.81 11.46-44.07 11.46s-34.36-6.35-44.08-11.46c-8.28-4.35-14.82-7.79-29.18-7.79s-20.91 3.44-29.19 7.79c-9.72 5.11-21.81 11.46-44.07 11.46a16 16 0 0 1 0-32c14.36 0 20.9-3.43 29.18-7.79 9.72-5.1 21.81-11.46 44.08-11.46s34.35 6.36 44.07 11.46c8.28 4.36 14.82 7.79 29.19 7.79s20.9-3.43 29.18-7.79c9.71-5.1 21.81-11.46 44.07-11.46s34.36 6.36 44.07 11.46c8.28 4.36 14.82 7.79 29.18 7.79s20.91-3.43 29.19-7.79c9.71-5.1 21.8-11.46 44.07-11.46a16 16 0 0 1 0 32c-14.37 0-20.91 3.44-29.18 7.79-9.72 5.11-21.81 11.46-44.08 11.46z"/><path d="m569.08 355.35c-22.26 0-34.35-6.36-44.07-11.46-8.28-4.36-14.82-7.79-29.18-7.79s-20.9 3.43-29.18 7.79c-9.72 5.1-21.81 11.46-44.07 11.46s-34.36-6.35-44.08-11.46c-8.28-4.36-14.82-7.79-29.18-7.79s-20.91 3.43-29.19 7.79c-9.72 5.1-21.81 11.46-44.07 11.46a16 16 0 0 1 0-32c14.36 0 20.9-3.44 29.18-7.79 9.72-5.11 21.81-11.46 44.08-11.46s34.35 6.35 44.07 11.46c8.28 4.35 14.82 7.79 29.19 7.79s20.9-3.44 29.18-7.79c9.71-5.11 21.81-11.46 44.07-11.46s34.36 6.35 44.07 11.46c8.28 4.35 14.82 7.79 29.18 7.79s20.91-3.44 29.19-7.79c9.71-5.11 21.8-11.46 44.07-11.46a16 16 0 0 1 0 32c-14.37 0-20.91 3.43-29.18 7.79-9.72 5.11-21.81 11.46-44.08 11.46z"/><path d="m569.08 453.05c-22.26 0-34.35-6.36-44.07-11.47-8.28-4.35-14.82-7.79-29.18-7.79s-20.9 3.44-29.18 7.79c-9.72 5.11-21.81 11.47-44.07 11.47s-34.36-6.36-44.08-11.47c-8.28-4.35-14.82-7.79-29.18-7.79s-20.91 3.44-29.19 7.79c-9.72 5.11-21.81 11.47-44.07 11.47a16 16 0 0 1 0-32c14.36 0 20.9-3.44 29.18-7.79 9.72-5.11 21.81-11.47 44.08-11.47s34.35 6.36 44.07 11.47c8.28 4.35 14.82 7.79 29.19 7.79s20.9-3.44 29.18-7.79c9.71-5.11 21.81-11.47 44.07-11.47s34.36 6.36 44.07 11.47c8.28 4.35 14.82 7.79 29.18 7.79s20.91-3.44 29.19-7.79c9.71-5.11 21.8-11.47 44.07-11.47a16 16 0 0 1 0 32c-14.37 0-20.91 3.44-29.18 7.79-9.72 5.11-21.81 11.47-44.08 11.47z"/><path d="m569.08 550.74c-22.26 0-34.35-6.35-44.07-11.46-8.28-4.35-14.82-7.79-29.18-7.79s-20.9 3.44-29.18 7.79c-9.72 5.11-21.81 11.46-44.07 11.46s-34.36-6.35-44.08-11.46c-8.28-4.35-14.82-7.79-29.18-7.79s-20.91 3.44-29.19 7.79c-9.72 5.11-21.81 11.46-44.07 11.46a16 16 0 1 1 0-32c14.36 0 20.9-3.43 29.18-7.78 9.72-5.11 21.81-11.47 44.08-11.47s34.35 6.36 44.07 11.47c8.28 4.35 14.82 7.78 29.19 7.78s20.9-3.43 29.18-7.78c9.71-5.11 21.81-11.47 44.07-11.47s34.36 6.36 44.07 11.47c8.28 4.35 14.82 7.78 29.18 7.78s20.92-3.43 29.19-7.74c9.71-5.11 21.8-11.47 44.07-11.47a16 16 0 0 1 0 32c-14.37 0-20.91 3.44-29.18 7.79-9.72 5.07-21.81 11.42-44.08 11.42z"/><path d="m569.08 648.44c-22.26 0-34.35-6.36-44.07-11.46-8.28-4.36-14.82-7.79-29.18-7.79s-20.9 3.43-29.18 7.79c-9.72 5.1-21.81 11.46-44.07 11.46s-34.36-6.36-44.08-11.44c-8.28-4.36-14.82-7.79-29.18-7.79s-20.91 3.43-29.19 7.79c-9.72 5.1-21.81 11.46-44.07 11.46a16 16 0 1 1 0-32c14.36 0 20.9-3.44 29.18-7.79 9.72-5.11 21.81-11.46 44.08-11.46s34.35 6.35 44.07 11.46c8.28 4.35 14.82 7.79 29.19 7.79s20.9-3.44 29.18-7.79c9.71-5.11 21.81-11.46 44.07-11.46s34.36 6.35 44.07 11.46c8.28 4.35 14.82 7.79 29.18 7.79s20.92-3.46 29.19-7.81c9.71-5.11 21.8-11.46 44.07-11.46a16 16 0 1 1 0 32c-14.37 0-20.91 3.43-29.18 7.79-9.72 5.1-21.81 11.46-44.08 11.46z"/><path d="m395.66 809.09h-228.1a16 16 0 0 1 0-32h228.1a16 16 0 0 1 0 32z"/><path d="m473.92 809.09h-26.27a16 16 0 0 1 0-32h26.27a16 16 0 0 1 0 32z"/><path d="m837.73 295.49h-118.25a16 16 0 0 1 0-32h118.25a16 16 0 0 1 0 32z"/></svg>