<?xml version="1.0" encoding="UTF-8" standalone="no"?>
<!-- Created with Inkscape (http://www.inkscape.org/) -->

<svg
   version="1.1"
   id="svg615"
   xml:space="preserve"
   width="682.66669"
   height="682.66669"
   viewBox="0 0 682.66669 682.66669"
   xmlns="http://www.w3.org/2000/svg"
   xmlns:svg="http://www.w3.org/2000/svg"><defs
     id="defs619"><clipPath
       clipPathUnits="userSpaceOnUse"
       id="clipPath629"><path
         d="M 0,512 H 512 V 0 H 0 Z"
         id="path627" /></clipPath></defs><g
     id="g621"
     transform="matrix(1.3333333,0,0,-1.3333333,0,682.66667)"><g
       id="g623"><g
         id="g625"
         clip-path="url(#clipPath629)"><g
           id="g631"
           transform="translate(480.4517,376.2419)"><path
             d="m 0,0 h -448.903 c -13.282,0 -24.049,-10.767 -24.049,-24.048 v -192.388 c 0,-13.281 10.767,-24.048 24.049,-24.048 H 0 c 13.282,0 24.048,10.767 24.048,24.048 V -24.048 C 24.048,-10.767 13.282,0 0,0 Z"
             style="fill:none;stroke:#000000;stroke-width:15;stroke-linecap:round;stroke-linejoin:round;stroke-miterlimit:10;stroke-dasharray:none;stroke-opacity:1"
             id="path633" /></g><g
           id="g635"
           transform="translate(472.4355,376.2419)"><path
             d="M 0,0 V -240.484"
             style="fill:none;stroke:#000000;stroke-width:15;stroke-linecap:round;stroke-linejoin:round;stroke-miterlimit:10;stroke-dasharray:none;stroke-opacity:1"
             id="path637" /></g><g
           id="g639"
           transform="translate(39.5645,376.2419)"><path
             d="M 0,0 V -240.484"
             style="fill:none;stroke:#000000;stroke-width:15;stroke-linecap:round;stroke-linejoin:round;stroke-miterlimit:10;stroke-dasharray:none;stroke-opacity:1"
             id="path641" /></g><g
           id="g643"
           transform="translate(111.7095,408.3064)"><path
             d="m 0,0 v 56.113 c 0,4.427 3.589,8.016 8.016,8.016 h 272.549 c 4.427,0 8.016,-3.589 8.016,-8.016 V 0"
             style="fill:none;stroke:#000000;stroke-width:15;stroke-linecap:round;stroke-linejoin:round;stroke-miterlimit:10;stroke-dasharray:none;stroke-opacity:1"
             id="path645" /></g><g
           id="g647"
           transform="translate(400.2905,103.6936)"><path
             d="m 0,0 v -56.113 c 0,-4.427 -3.589,-8.016 -8.016,-8.016 h -272.549 c -4.427,0 -8.016,3.589 -8.016,8.016 V 0"
             style="fill:none;stroke:#000000;stroke-width:15;stroke-linecap:round;stroke-linejoin:round;stroke-miterlimit:10;stroke-dasharray:none;stroke-opacity:1"
             id="path649" /></g><g
           id="g651"
           transform="translate(167.8228,408.3064)"><path
             d="M 0,0 H 176.354"
             style="fill:none;stroke:#000000;stroke-width:15;stroke-linecap:round;stroke-linejoin:round;stroke-miterlimit:10;stroke-dasharray:none;stroke-opacity:1"
             id="path653" /></g><g
           id="g655"
           transform="translate(167.8228,440.3708)"><path
             d="M 0,0 H 136.274"
             style="fill:none;stroke:#000000;stroke-width:15;stroke-linecap:round;stroke-linejoin:round;stroke-miterlimit:10;stroke-dasharray:none;stroke-opacity:1"
             id="path657" /></g><g
           id="g659"
           transform="translate(167.8228,103.6936)"><path
             d="M 0,0 H 176.354"
             style="fill:none;stroke:#000000;stroke-width:15;stroke-linecap:round;stroke-linejoin:round;stroke-miterlimit:10;stroke-dasharray:none;stroke-opacity:1"
             id="path661" /></g><g
           id="g663"
           transform="translate(111.7095,304.0967)"><path
             d="M 0,0 V 40.081 H 40.081"
             style="fill:none;stroke:#000000;stroke-width:15;stroke-linecap:round;stroke-linejoin:round;stroke-miterlimit:10;stroke-dasharray:none;stroke-opacity:1"
             id="path665" /></g><g
           id="g667"
           transform="translate(151.7905,167.8225)"><path
             d="M 0,0 H -40.081 V 40.081"
             style="fill:none;stroke:#000000;stroke-width:15;stroke-linecap:round;stroke-linejoin:round;stroke-miterlimit:10;stroke-dasharray:none;stroke-opacity:1"
             id="path669" /></g><g
           id="g671"
           transform="translate(400.2905,207.9033)"><path
             d="M 0,0 V -40.081 H -40.081"
             style="fill:none;stroke:#000000;stroke-width:15;stroke-linecap:round;stroke-linejoin:round;stroke-miterlimit:10;stroke-dasharray:none;stroke-opacity:1"
             id="path673" /></g><g
           id="g675"
           transform="translate(360.2095,344.1775)"><path
             d="M 0,0 H 40.081 V -40.081"
             style="fill:none;stroke:#000000;stroke-width:15;stroke-linecap:round;stroke-linejoin:round;stroke-miterlimit:10;stroke-dasharray:none;stroke-opacity:1"
             id="path677" /></g><g
           id="g679"
           transform="translate(202.356,189.199)"><path
             d="m 0,0 51.026,133.976 c 1.043,2.549 4.652,2.553 5.7,0.005 L 107.288,0"
             style="fill:none;stroke:#000000;stroke-width:15;stroke-linecap:round;stroke-linejoin:round;stroke-miterlimit:10;stroke-dasharray:none;stroke-opacity:1"
             id="path681" /></g><g
           id="g683"
           transform="translate(218.2695,222.5659)"><path
             d="M 0,0 H 75.718"
             style="fill:none;stroke:#000000;stroke-width:15;stroke-linecap:round;stroke-linejoin:round;stroke-miterlimit:10;stroke-dasharray:none;stroke-opacity:1"
             id="path685" /></g><g
           id="g687"
           transform="translate(207.9033,71.6292)"><path
             d="M 0,0 H 136.274"
             style="fill:none;stroke:#000000;stroke-width:15;stroke-linecap:round;stroke-linejoin:round;stroke-miterlimit:10;stroke-dasharray:none;stroke-opacity:1"
             id="path689" /></g></g></g></g></svg>
