<svg viewBox="0 0 72 72" xmlns="http://www.w3.org/2000/svg"><g id="Layer_25" data-name="Layer 25"><path d="m56 57h-40a3 3 0 0 0 0 6h40a3 3 0 0 0 0-6zm0 4h-40a1 1 0 0 1 0-2h40a1 1 0 0 1 0 2z"/><path d="m63.73 26.04-17.3 4.8-9.6-14.39a.9971.9971 0 0 0 -1.68.02l-9.58 15.33-17.25-5.75a.98929.98929 0 0 0 -1 .22 1.00193 1.00193 0 0 0 -.29.98l6.61 25.5a3.00518 3.00518 0 0 0 2.91 2.25h38.9a3.00518 3.00518 0 0 0 2.91-2.25l6.61-25.5a1.00189 1.00189 0 0 0 -1.24-1.21zm-26.87 4.21 4.25 7.24a1.02523 1.02523 0 0 1 -.01 1.03l-4.25 7a.99253.99253 0 0 1 -1.7 0l-4.25-7a1.02523 1.02523 0 0 1 -.01-1.03l4.25-7.24a1.037 1.037 0 0 1 1.72 0zm-12.86 14.75a1 1 0 1 1 -1 1 1.003 1.003 0 0 1 1-1zm-6-8a3 3 0 1 1 -3 3 3.00879 3.00879 0 0 1 3-3zm30 9a1 1 0 1 1 1 1 1.003 1.003 0 0 1 -1-1zm3-6a3 3 0 1 1 3 3 3.00879 3.00879 0 0 1 -3-3z"/><circle cx="36" cy="12" r="3"/><path d="m64 23a1 1 0 0 0 0 2 2.00229 2.00229 0 0 1 2 2 1 1 0 0 0 2 0 4.00427 4.00427 0 0 0 -4-4z"/><path d="m9 24a.99974.99974 0 0 0 -1-1 4.00427 4.00427 0 0 0 -4 4 1 1 0 0 0 2 0 2.00229 2.00229 0 0 1 2-2 .99974.99974 0 0 0 1-1z"/></g></svg>