<svg viewBox="0 0 1024 1024" class="icon" version="1.1" xmlns="http://www.w3.org/2000/svg" fill="#000000"><g id="SVGRepo_bgCarrier" stroke-width="0"></g><g id="SVGRepo_tracerCarrier" stroke-linecap="round" stroke-linejoin="round"></g><g id="SVGRepo_iconCarrier"><path d="M791.565745 929.75238H231.962244c-46.990193 0-85.214904-38.225735-85.214904-85.214904V499.649895c0-39.8189 27.447294-73.33681 64.414674-82.646999v-69.44707c0-85.823092 44.431504-165.534612 115.933511-208.016638 79.071592-46.958453 166.320956-59.298319 245.580943-34.796743 75.129633 23.201241 137.300974 77.520406 170.577248 149.032652 9.352169 20.067128 7.82146 43.204889-4.109876 61.898988-11.909834 18.703313-32.249316 29.869807-54.39186 29.869806-25.099525 0-47.5349-14.510503-58.543715-37.868399-18.997168-40.34313-54.475819-70.023517-97.292656-81.451101-46.172109-12.329627-96.727471-1.604428-142.269889 30.162638-29.208377 20.3917-46.654359 54.863871-46.654359 92.218279v65.829683h451.574384c46.990193 0 85.214904 38.225735 85.214904 85.214904v344.887581c0 46.989169-38.224711 85.214904-85.214904 85.214904zM490.774857 135.408834c-47.388484 0-95.993345 13.880813-141.74566 41.055754-58.543715 34.786504-94.923385 100.343833-94.923385 171.091238v109.150271l-22.142544 0.670645c-23.316941 0-42.27213 18.965428-42.272129 42.272129v344.887581c0 23.306702 18.955189 42.27213 42.272129 42.272129h559.603501c23.316941 0 42.27213-18.965428 42.272129-42.272129V499.649895c0-23.306702-18.955189-42.27213-42.272129-42.272129H297.048587V348.604284c0-51.372422 24.301918-99.012783 65.022861-127.424576 56.090486-39.148255 119.226327-52.116787 177.916457-36.44315 55.084007 14.688659 100.669429 52.829411 125.055306 104.631865 7.33921 15.547699 29.355816 16.60742 37.8899 3.229334 4.047419-6.363447 4.570624-13.902315 1.404771-20.706033-28.18142-60.524933-80.790695-106.488169-144.324827-126.124242-22.437423-6.93068-45.690883-10.358648-69.238198-10.358648z" fill="#22C67F"></path><path d="M608.386517 623.369031c0-53.362855-43.259155-96.62201-96.622011-96.622011-53.362855 0-96.62201 43.259155-96.62201 96.622011 0 40.189547 24.548675 74.628954 59.460093 89.192698v126.349497h74.324859V712.561729c34.910394-14.563745 59.459069-49.002128 59.459069-89.192698z" fill="#74E8AE"></path></g></svg>