<svg viewBox="0 0 64 64" xmlns="http://www.w3.org/2000/svg"><g id="Fill_1" data-name="Fill 1"><path d="m17 55-8-8-5 13z" fill="#ffcf83"/><path d="m5.751 27.843h49.498v11.314h-49.498z" fill="#ffe145" transform="matrix(.707 -.707 .707 .707 -14.755 31.379)"/><path d="m47.172 8.343h5.657v11.314h-5.657z" fill="#c3e7f4" transform="matrix(.707 -.707 .707 .707 4.745 39.456)"/><path d="m56 16-8-8 2.8284-2.8284a4 4 0 0 1 5.6569 0l2.3431 2.3431a4 4 0 0 1 0 5.6569z" fill="#e32728"/></g><g id="Effect_Line" fill="#fcf4bb" data-name="Effect Line"><path d="m15 48a1 1 0 0 1 -.707-1.707l26-26a1 1 0 0 1 1.414 1.414l-26 26a.9967.9967 0 0 1 -.707.293z"/><circle cx="44" cy="18" r="1"/></g><g id="Line"><path d="m57.1924 4.4644a5.0064 5.0064 0 0 0 -7.0713 0l-41.8281 41.8286a1.0073 1.0073 0 0 0 -.2266.3481l-5 13a1 1 0 0 0 1.293 1.292l13-5c.0053-.002.0089-.0071.0142-.0092a1.0834 1.0834 0 0 0 .3364-.2139l.0175-.0235 41.8077-41.8081a4.9989 4.9989 0 0 0 0-7.0708zm-5.1924 14.1214-6.5861-6.5858 2.5861-2.5861 6.5858 6.5861zm-35 35-6.5857-6.5858 33.5857-33.5861 6.5858 6.5861zm-7.619-4.7909 5.824 5.824-7.3462 2.8256-1.3033-1.3028zm48.74-36.3309-2.121 2.1217-6.5862-6.5857 2.1214-2.1214a3.0054 3.0054 0 0 1 4.2431 0l2.3428 2.3433a3 3 0 0 1 0 4.2427z"/></g></svg>